<svg width="16" height="16" viewBox="0 0 16 16" fill="none" xmlns="http://www.w3.org/2000/svg">
<path d="M4 7C4.26522 7 4.51957 6.89464 4.70711 6.70711C4.89464 6.51957 5 6.26522 5 6C5 5.73478 4.89464 5.48043 4.70711 5.29289C4.51957 5.10536 4.26522 5 4 5C3.73478 5 3.48043 5.10536 3.29289 5.29289C3.10536 5.48043 3 5.73478 3 6C3 6.26522 3.10536 6.51957 3.29289 6.70711C3.48043 6.89464 3.73478 7 4 7Z" fill="white"/>
<path d="M8 9C8.26522 9 8.51957 8.89464 8.70711 8.70711C8.89464 8.51957 9 8.26522 9 8C9 7.73478 8.89464 7.48043 8.70711 7.29289C8.51957 7.10536 8.26522 7 8 7C7.73478 7 7.48043 7.10536 7.29289 7.29289C7.10536 7.48043 7 7.73478 7 8C7 8.26522 7.10536 8.51957 7.29289 8.70711C7.48043 8.89464 7.73478 9 8 9V9Z" fill="white"/>
<path d="M11 12C11 12.2652 10.8946 12.5196 10.7071 12.7071C10.5196 12.8946 10.2652 13 10 13C9.73478 13 9.48043 12.8946 9.29289 12.7071C9.10536 12.5196 9 12.2652 9 12C9 11.7348 9.10536 11.4804 9.29289 11.2929C9.48043 11.1054 9.73478 11 10 11C10.2652 11 10.5196 11.1054 10.7071 11.2929C10.8946 11.4804 11 11.7348 11 12V12Z" fill="white"/>
<path d="M5 12C5.26522 12 5.51957 11.8946 5.70711 11.7071C5.89464 11.5196 6 11.2652 6 11C6 10.7348 5.89464 10.4804 5.70711 10.2929C5.51957 10.1054 5.26522 10 5 10C4.73478 10 4.48043 10.1054 4.29289 10.2929C4.10536 10.4804 4 10.7348 4 11C4 11.2652 4.10536 11.5196 4.29289 11.7071C4.48043 11.8946 4.73478 12 5 12Z" fill="white"/>
<path d="M8 1.6516e-07C6.35607 0.000137251 4.75209 0.506719 3.40629 1.45082C2.06049 2.39493 1.03822 3.73071 0.478551 5.27644C-0.081117 6.82217 -0.151003 8.50279 0.278402 10.0896C0.707807 11.6765 1.61565 13.0926 2.87842 14.1451C4.14119 15.1977 5.69758 15.8357 7.33582 15.9723C8.97406 16.1089 10.6146 15.7376 12.0343 14.9087C13.454 14.0798 14.5838 12.8337 15.2701 11.3399C15.9565 9.84606 16.1659 8.17708 15.87 6.56C15.853 6.4677 15.8104 6.38203 15.747 6.31281C15.6837 6.24359 15.6021 6.1936 15.5116 6.16856C15.4212 6.14352 15.3255 6.14445 15.2356 6.17123C15.1456 6.19801 15.065 6.24956 15.003 6.32C14.7347 6.62562 14.3796 6.84218 13.9851 6.94082C13.5905 7.03945 13.1753 7.01547 12.7948 6.87207C12.4142 6.72867 12.0864 6.47267 11.8551 6.13819C11.6238 5.80372 11.4999 5.40668 11.5 5C11.4999 4.87225 11.4562 4.74836 11.3762 4.64874C11.2962 4.54912 11.1847 4.47973 11.06 4.452C10.7084 4.37284 10.3847 4.20014 10.1232 3.95215C9.86164 3.70417 9.67197 3.39012 9.57423 3.04322C9.47649 2.69631 9.47431 2.32944 9.56791 1.9814C9.66152 1.63336 9.84743 1.31708 10.106 1.066C10.1702 1.00363 10.2165 0.925146 10.2401 0.838758C10.2636 0.752371 10.2635 0.661247 10.2398 0.574904C10.2161 0.488561 10.1697 0.410168 10.1053 0.347914C10.041 0.28566 9.96108 0.241829 9.874 0.221C9.2602 0.0738467 8.63119 -0.000333235 8 1.6516e-07V1.6516e-07ZM1 8C0.999943 7.00718 1.21108 6.0257 1.6194 5.12073C2.02771 4.21575 2.62386 3.40799 3.36827 2.75107C4.11268 2.09414 4.98832 1.60308 5.93705 1.31049C6.88578 1.0179 7.88589 0.930465 8.871 1.054C8.66025 1.43678 8.53566 1.86098 8.50595 2.29694C8.47623 2.73289 8.54211 3.17007 8.69898 3.57791C8.85585 3.98575 9.09992 4.35439 9.41411 4.65807C9.72831 4.96174 10.1051 5.19311 10.518 5.336C10.5735 5.83007 10.7509 6.3026 11.0343 6.7111C11.3177 7.11959 11.6982 7.45125 12.1416 7.67625C12.5849 7.90125 13.0773 8.01254 13.5743 8.0001C14.0713 7.98766 14.5575 7.85189 14.989 7.605C15.0414 8.53918 14.906 9.4744 14.5909 10.3554C14.2757 11.2363 13.7871 12.0452 13.1539 12.7341C12.5208 13.423 11.7559 13.9779 10.9046 14.3662C10.0533 14.7544 9.13285 14.9681 8.19757 14.9945C7.2623 15.0209 6.33121 14.8595 5.45936 14.5199C4.58751 14.1803 3.79259 13.6694 3.12159 13.0173C2.45058 12.3653 1.91711 11.5853 1.55271 10.7235C1.1883 9.86174 1.00037 8.93565 1 8V8Z" fill="white"/>
</svg>
