<svg width="838" height="482" viewBox="0 0 838 482" fill="none" xmlns="http://www.w3.org/2000/svg">
<path d="M7.17557e-06 452.34C2.33206e-05 402.638 838 404.495 838 452.34C838 404.495 838 500.185 838 452.34C838 500.185 7.17557e-06 481.95 7.17557e-06 452.34C-8.96946e-06 502.043 7.17557e-06 422.73 7.17557e-06 452.34Z" fill="black" fill-opacity="0.35"/>
<path d="M739.07 226.563H73.5366V244.54H739.07V226.563Z" fill="black"/>
<path d="M73.5366 243.541L73.5366 463.501H90.4659L90.4659 243.541H73.5366Z" fill="black"/>
<path d="M135.264 230.224L73.5366 295.304L85.7479 308.178L147.475 243.099L135.264 230.224Z" fill="black"/>
<path d="M676.89 230.608L738.617 295.688L726.406 308.562L664.679 243.483L676.89 230.608Z" fill="black"/>
<path d="M722.14 243.541V463.501H739.069V243.541H722.14Z" fill="black"/>
<path d="M739.07 208.586H73.5366V226.563H739.07V208.586Z" fill="#D3764E"/>
<path d="M191.266 125.966L187.977 125.528C187.43 125.455 186.933 125.841 186.867 126.389L182.584 162.145C182.519 162.694 182.909 163.197 183.457 163.27L186.746 163.708C187.293 163.781 187.79 163.395 187.856 162.847L192.139 127.091C192.204 126.542 191.814 126.039 191.266 125.966Z" fill="#EAD733"/>
<path d="M191.265 125.982L187.975 125.544C187.428 125.471 186.931 125.857 186.865 126.405L186.1 132.796C186.034 133.344 186.425 133.848 186.972 133.921L190.261 134.358C190.809 134.431 191.306 134.046 191.371 133.498L192.137 127.107C192.203 126.558 191.812 126.055 191.265 125.982Z" fill="#DE46B4"/>
<path d="M191.4 133.271L186.128 132.569L185.962 133.959L191.233 134.661L191.4 133.271Z" fill="#9D9D9D"/>
<path d="M166.761 136.99L163.516 137.72C162.977 137.841 162.629 138.378 162.738 138.919L169.869 174.164C169.978 174.705 170.504 175.046 171.043 174.924L174.288 174.195C174.827 174.073 175.175 173.536 175.066 172.995L167.935 137.75C167.826 137.209 167.3 136.869 166.761 136.99Z" fill="#2AA061"/>
<path d="M166.764 137.006L163.519 137.736C162.98 137.857 162.632 138.394 162.741 138.935L164.015 145.232C164.125 145.773 164.65 146.114 165.189 145.993L168.435 145.263C168.973 145.142 169.322 144.605 169.212 144.063L167.938 137.766C167.828 137.225 167.303 136.884 166.764 137.006Z" fill="#DE46B4"/>
<path d="M169.167 143.84L163.97 145.009L164.247 146.379L169.444 145.211L169.167 143.84Z" fill="#9D9D9D"/>
<path d="M184.357 131.534L181.053 131.253C180.503 131.206 180.023 131.614 179.981 132.165L177.229 168.089C177.187 168.64 177.599 169.124 178.149 169.171L181.452 169.453C182.003 169.499 182.483 169.091 182.525 168.54L185.277 132.616C185.319 132.065 184.907 131.581 184.357 131.534Z" fill="#2398B1"/>
<path d="M184.356 131.55L181.052 131.269C180.502 131.222 180.022 131.63 179.98 132.181L179.488 138.603C179.446 139.153 179.857 139.638 180.408 139.685L183.711 139.966C184.262 140.013 184.742 139.604 184.784 139.054L185.276 132.632C185.318 132.081 184.906 131.597 184.356 131.55Z" fill="#DE46B4"/>
<path d="M184.801 138.825L179.505 138.374L179.398 139.771L184.694 140.222L184.801 138.825Z" fill="#9D9D9D"/>
<path d="M157.125 152.538H197.332L191.971 208.586H162.486L157.125 152.538Z" fill="#2B00D4"/>
<path d="M161.668 200.126H192.784L191.983 208.586H162.415L161.668 200.126Z" fill="#0000A2"/>
<path d="M134.397 196.403H122.716V208.078H134.397V196.403Z" fill="#0000FF" stroke="black" stroke-width="1.1"/>
<path d="M121.7 196.403H110.019V208.078H121.7V196.403Z" fill="#00FF00" stroke="black" stroke-width="1.1"/>
<path d="M121.7 183.713H110.019V195.388H121.7V183.713Z" fill="#ED7F10" stroke="black" stroke-width="1.1"/>
<path d="M109.003 196.403H97.3224V208.078H109.003V196.403Z" fill="#FFFF00" stroke="black" stroke-width="1.1"/>
<path d="M109.003 183.713H97.3224V195.388H109.003V183.713Z" fill="#0000FF" stroke="black" stroke-width="1.1"/>
<path d="M134.397 171.023H122.716V182.698H134.397V171.023Z" fill="#FFFF00" stroke="black" stroke-width="1.1"/>
<path d="M121.7 171.023H110.019V182.698H121.7V171.023Z" fill="white" stroke="black" stroke-width="1.1"/>
<path d="M109.003 171.023H97.3224V182.698H109.003V171.023Z" fill="#FF0000" stroke="black" stroke-width="1.1"/>
<path d="M134.397 183.713H122.716V195.388H134.397V183.713Z" fill="#FF0000" stroke="black" stroke-width="1.1"/>
<path d="M216.377 200.126H202.622V208.586H216.377V200.126Z" fill="#DE46B4"/>
<path d="M230.133 200.126H216.378V208.586H230.133V200.126Z" fill="#2398B1"/>
<path d="M436.987 180.225H378.793V208.793H436.987V180.225Z" fill="#828282"/>
<path d="M317.953 204.356H493.595L496.769 208.586H314.779L317.953 204.356Z" fill="#343434"/>
<path d="M327.476 202.241H320.069V204.356H327.476V202.241Z" fill="#343434"/>
<path d="M339.115 202.241H331.708V204.356H339.115V202.241Z" fill="#343434"/>
<path d="M385.671 202.241H378.264V204.356H385.671V202.241Z" fill="#343434"/>
<path d="M397.31 202.241H389.903V204.356H397.31V202.241Z" fill="#343434"/>
<path d="M408.949 202.241H401.542V204.356H408.949V202.241Z" fill="#343434"/>
<path d="M420.587 202.241H413.181V204.356H420.587V202.241Z" fill="#343434"/>
<path d="M432.226 202.241H424.819V204.356H432.226V202.241Z" fill="#343434"/>
<path d="M443.865 202.241H436.458V204.356H443.865V202.241Z" fill="#343434"/>
<path d="M467.143 202.241H459.736V204.356H467.143V202.241Z" fill="#343434"/>
<path d="M478.782 202.241H471.375V204.356H478.782V202.241Z" fill="#343434"/>
<path d="M490.42 202.241H483.014V204.356H490.42V202.241Z" fill="#343434"/>
<path d="M350.754 202.241H343.347V204.356H350.754V202.241Z" fill="#343434"/>
<path d="M374.032 202.241H366.625V204.356H374.032V202.241Z" fill="#343434"/>
<path d="M362.393 202.241H354.986V204.356H362.393V202.241Z" fill="#343434"/>
<path d="M455.504 202.241H448.097V204.356H455.504V202.241Z" fill="#343434"/>
<path d="M621.623 202.068C621.623 200.412 622.966 199.068 624.623 199.068H703.269C704.926 199.068 706.269 200.412 706.269 202.068V208.586H621.623V202.068Z" fill="#343434"/>
<path d="M688.458 113.795L698.19 116.552L672.056 202.815L662.324 200.058L688.458 113.795Z" fill="#343434"/>
<path d="M633.591 52.7246L641.663 46.7881L697.941 118.331L689.869 124.268L633.591 52.7246Z" fill="#343434"/>
<path d="M669.085 89.8745L672.409 89.2803L684.168 150.789L680.844 151.383L669.085 89.8745Z" fill="#343434"/>
<path d="M619.285 45.4472L638.681 31.1806C640.461 29.8716 643.011 30.218 644.377 31.9543L649.663 38.6742C651.029 40.4105 650.694 42.8791 648.914 44.1881L629.518 58.4547L619.285 45.4472Z" fill="#343434"/>
<path d="M624.573 81.3852C629.669 77.5431 633.017 71.852 633.879 65.5637C634.742 59.2755 633.048 52.9053 629.172 47.8545C625.295 42.8037 619.553 39.486 613.208 38.6314C606.863 37.7767 600.436 39.455 595.34 43.2971L609.957 62.3412L624.573 81.3852Z" fill="#343434"/>
<path d="M595.287 43.6155L625.855 81.6457C625.855 81.6457 619.287 83.3304 604.301 64.7985C589.315 46.2666 595.287 43.6155 595.287 43.6155Z" fill="#C4C4C4"/>
<path d="M605.927 57.1135C605.311 57.58 604.818 58.1946 604.477 58.9222C604.136 59.6498 603.953 60.4762 603.94 61.3541C603.926 62.232 604.082 63.1443 604.398 64.0389C604.713 64.9335 605.183 65.7928 605.781 66.5679C606.378 67.3429 607.09 68.0185 607.878 68.5561C608.666 69.0936 609.513 69.4826 610.371 69.7007C611.229 69.9189 612.081 69.962 612.879 69.8277C613.677 69.6933 614.405 69.384 615.022 68.9175L610.474 63.0155L605.927 57.1135Z" fill="#FFFF00"/>
<mask id="mask0" style="mask-type:alpha" maskUnits="userSpaceOnUse" x="254" y="0" width="307" height="181">
<path d="M555.782 0.350952H259.997C257.236 0.350952 254.997 2.58953 254.997 5.35095V175.225C254.997 177.986 257.236 180.225 259.997 180.225H555.782C558.543 180.225 560.782 177.986 560.782 175.225V5.35095C560.782 2.58953 558.543 0.350952 555.782 0.350952Z" fill="white"/>
</mask>
<g mask="url(#mask0)">
<path d="M555.782 0.350952H259.997C257.236 0.350952 254.997 2.58953 254.997 5.35095V175.225C254.997 177.986 257.236 180.225 259.997 180.225H555.782C558.543 180.225 560.782 177.986 560.782 175.225V5.35095C560.782 2.58953 558.543 0.350952 555.782 0.350952Z" fill="#0A1340" stroke="#00002C" stroke-width="12"/>
<path d="M284.624 23.6288H300.495V28.9192H284.624V23.6288Z" fill="#8C95C2"/>
<path d="M284.624 37.3839H300.495V42.6743H284.624V37.3839Z" fill="#8C95C2"/>
<path d="M284.624 51.1389H300.495V56.4293H284.624V51.1389Z" fill="#8C95C2"/>
<path d="M284.624 64.894H300.495V70.1844H284.624V64.894Z" fill="#8C95C2"/>
<path d="M284.624 78.649H300.495V83.9394H284.624V78.649Z" fill="#8C95C2"/>
<path d="M284.624 92.4041H300.495V97.6945H284.624V92.4041Z" fill="#8C95C2"/>
<path d="M284.624 106.159H300.495V111.449H284.624V106.159Z" fill="#8C95C2"/>
<path d="M284.624 119.914H300.495V125.205H284.624V119.914Z" fill="#8C95C2"/>
<path d="M284.624 133.669H300.495V138.96H284.624V133.669Z" fill="#8C95C2"/>
<path d="M284.624 147.424H300.495V152.715H284.624V147.424Z" fill="#8C95C2"/>
<path d="M417.942 23.6288H433.813V28.9192H417.942V23.6288Z" fill="#8C95C2"/>
<path d="M417.942 37.3839H433.813V42.6743H417.942V37.3839Z" fill="#8C95C2"/>
<path d="M417.942 51.1389H433.813V56.4293H417.942V51.1389Z" fill="#8C95C2"/>
<path d="M417.942 64.894H433.813V70.1844H417.942V64.894Z" fill="#8C95C2"/>
<path d="M417.942 78.649H433.813V83.9394H417.942V78.649Z" fill="#8C95C2"/>
<path d="M417.942 92.4041H433.813V97.6945H417.942V92.4041Z" fill="#8C95C2"/>
<path d="M417.942 106.159H433.813V111.449H417.942V106.159Z" fill="#8C95C2"/>
<path d="M417.942 119.914H433.813V125.205H417.942V119.914Z" fill="#8C95C2"/>
<path d="M417.942 133.669H433.813V138.96H417.942V133.669Z" fill="#8C95C2"/>
<path d="M417.942 147.424H433.813V152.715H417.942V147.424Z" fill="#8C95C2"/>
<path d="M311.076 23.6288H406.303V28.9192H311.076V23.6288Z" fill="#F2C94C"/>
<path d="M444.394 37.3839H539.621V42.6743H444.394V37.3839Z" fill="#56CCF2"/>
<path d="M444.394 106.159H539.621V111.449H444.394V106.159Z" fill="#EB5757"/>
<path d="M311.076 37.3839H358.689V42.6743H311.076V37.3839Z" fill="#2F80ED"/>
<path d="M311.076 51.1389H390.432V56.4293H311.076V51.1389Z" fill="#27AE60"/>
<path d="M444.394 64.894H523.75V70.1844H444.394V64.894Z" fill="#2F80ED"/>
<path d="M444.394 119.914H523.75V125.205H444.394V119.914Z" fill="#27AE60"/>
<path d="M311.076 64.894H374.561V70.1844H311.076V64.894Z" fill="#9B51E0"/>
<path d="M444.394 23.6288H507.879V28.9192H444.394V23.6288Z" fill="#27AE60"/>
<path d="M444.394 133.669H507.879V138.96H444.394V133.669Z" fill="#56CCF2"/>
<path d="M444.394 92.4041H507.879V97.6945H444.394V92.4041Z" fill="#9B51E0"/>
<path d="M311.076 78.649H326.947V83.9394H311.076V78.649Z" fill="#EB5757"/>
<path d="M444.394 51.1389H460.265V56.4293H444.394V51.1389Z" fill="#EB5757"/>
<path d="M444.394 78.649H476.136V83.9394H444.394V78.649Z" fill="#F2C94C"/>
<path d="M444.394 147.424H476.136V152.715H444.394V147.424Z" fill="#2F80ED"/>
<path d="M311.076 92.4041H390.432V97.6945H311.076V92.4041Z" fill="#56CCF2"/>
<path d="M311.076 106.159H406.303V111.449H311.076V106.159Z" fill="#9B51E0"/>
<path d="M311.076 119.914H358.689V125.205H311.076V119.914Z" fill="#2F80ED"/>
<path d="M311.076 133.669H374.561V138.96H311.076V133.669Z" fill="#F2C94C"/>
<path d="M311.076 147.424H326.947V152.715H311.076V147.424Z" fill="#EB5757"/>
</g>
</svg>
