<svg width="714" height="522" viewBox="0 0 714 522" fill="none" xmlns="http://www.w3.org/2000/svg">
<path d="M199.501 158.053H250.756L357.21 419.632V521.576L199.501 158.053Z" fill="#FE8C08"/>
<path d="M513.918 158.053H462.663L356.21 419.632V521.576L513.918 158.053Z" fill="#FE8C08"/>
<rect x="102.511" y="134.345" width="173.479" height="39.5133" fill="white"/>
<rect x="437.43" y="134.345" width="173.479" height="39.5133" fill="white"/>
<path d="M240.505 134.345H281.51L357.21 324.8V419.632L240.505 134.345Z" fill="white"/>
<path d="M472.914 134.345H431.91L356.21 324.8V419.632L472.914 134.345Z" fill="white"/>
<path d="M0 55.3187V0L157.708 173.859H102.511L0 55.3187Z" fill="white"/>
<path d="M713.42 55.3187V0L555.711 173.859H610.909L713.42 55.3187Z" fill="white"/>
<path d="M469.76 55.3187V0L618.794 164.376L572.27 173.859L469.76 55.3187Z" fill="white"/>
<path d="M243.66 55.3187V0L94.6251 164.376L141.149 173.859L243.66 55.3187Z" fill="white"/>
</svg>
