<svg width="86" height="64" viewBox="0 0 86 64" fill="none" xmlns="http://www.w3.org/2000/svg">
<path d="M48.6794 17.3192L45.7556 22.3819L35.7567 5.06312L5.06176 58.2219H25.8443C25.8443 61.0179 28.111 63.2846 30.907 63.2846H5.06177C3.2532 63.2846 1.58217 62.3192 0.678036 60.7528C-0.226098 59.1864 -0.226007 57.2568 0.678279 55.6905L31.3732 2.53176C32.2776 0.965258 33.949 0.000244141 35.7578 0.000244141C37.5666 0.000244141 39.238 0.965258 40.1423 2.53176L48.6794 17.3192Z" fill="#00C58E"/>
<path d="M70.8373 55.6899L51.6031 22.3813L48.6794 17.3186L45.7557 22.3813L26.5236 55.6899C25.6193 57.2562 25.6192 59.1859 26.5234 60.7522C27.4275 62.3186 29.0985 63.284 30.9071 63.284H66.4475C68.2565 63.284 69.9282 62.3196 70.8328 60.7532C71.7375 59.1867 71.7376 57.2565 70.8331 55.6899H70.8373ZM30.9071 58.2213L48.6794 27.4441L66.4475 58.2213H30.9071L30.9071 58.2213Z" fill="#2F495E"/>
<path d="M84.5889 60.7528C83.6847 62.3189 82.0138 63.2841 80.2054 63.2841H66.4474C69.2435 63.2841 71.5101 61.0175 71.5101 58.2214H80.1949L55.552 15.5404L51.603 22.3814L48.6793 17.3187L51.1685 13.0091C52.0728 11.4426 53.7442 10.4775 55.553 10.4775C57.3618 10.4775 59.0332 11.4426 59.9376 13.0091L84.5889 55.69C85.4933 57.2564 85.4933 59.1863 84.5889 60.7528Z" fill="#108775"/>
</svg>
